<?xml version="1.0" encoding="iso-8859-1"?>
<!-- Generator: Adobe Illustrator 16.0.0, SVG Export Plug-In . SVG Version: 6.00 Build 0)  -->
<!DOCTYPE svg PUBLIC "-//W3C//DTD SVG 1.1//EN" "http://www.w3.org/Graphics/SVG/1.1/DTD/svg11.dtd">
<svg version="1.1" id="Capa_1" xmlns="http://www.w3.org/2000/svg" xmlns:xlink="http://www.w3.org/1999/xlink" x="0px" y="0px"
	 width="354.487px" height="354.487px" viewBox="0 0 354.487 354.487" style="enable-background:new 0 0 354.487 354.487;"
	 xml:space="preserve">
<g>
	<path d="M177.241,112.284c-11.887,0-21.521,11.013-21.521,24.596v80.723c0,13.582,9.635,24.595,21.521,24.595
		s21.519-11.013,21.519-24.595V136.88C198.76,123.297,189.128,112.284,177.241,112.284z"/>
	<path d="M177.241,0C79.504,0,0,79.51,0,177.241c0,97.736,79.51,177.246,177.241,177.246c97.731,0,177.246-79.516,177.246-177.246
		C354.487,79.504,274.979,0,177.241,0z M177.241,311.444c-73.994,0-134.198-60.203-134.198-134.203
		c0-73.995,60.204-134.199,134.198-134.199c74,0,134.204,60.204,134.204,134.199C311.445,251.241,251.241,311.444,177.241,311.444z"
		/>
</g>
<g>
</g>
<g>
</g>
<g>
</g>
<g>
</g>
<g>
</g>
<g>
</g>
<g>
</g>
<g>
</g>
<g>
</g>
<g>
</g>
<g>
</g>
<g>
</g>
<g>
</g>
<g>
</g>
<g>
</g>
</svg>
